<?xml version="1.0" encoding="UTF-8" standalone="no"?>
<!-- Generator: Adobe Illustrator 25.0.1, SVG Export Plug-In . SVG Version: 6.00 Build 0)  -->

<svg
   version="1.0"
   id="Layer_1"
   x="0px"
   y="0px"
   viewBox="0 0 745.151 169.90199"
   xml:space="preserve"
   sodipodi:docname="booksyf.svg"
   width="745.151"
   height="169.90199"
   inkscape:version="1.2.2 (732a01da63, 2022-12-09)"
   xmlns:inkscape="http://www.inkscape.org/namespaces/inkscape"
   xmlns:sodipodi="http://sodipodi.sourceforge.net/DTD/sodipodi-0.dtd"
   xmlns="http://www.w3.org/2000/svg"
   xmlns:svg="http://www.w3.org/2000/svg"><defs
   id="defs10" /><sodipodi:namedview
   id="namedview8"
   pagecolor="#505050"
   bordercolor="#eeeeee"
   borderopacity="1"
   inkscape:showpageshadow="0"
   inkscape:pageopacity="0"
   inkscape:pagecheckerboard="0"
   inkscape:deskcolor="#505050"
   showgrid="false"
   inkscape:zoom="0.91821614"
   inkscape:cx="561.41466"
   inkscape:cy="157.91489"
   inkscape:window-width="1920"
   inkscape:window-height="1009"
   inkscape:window-x="1912"
   inkscape:window-y="-8"
   inkscape:window-maximized="1"
   inkscape:current-layer="Layer_1" />
<style
   type="text/css"
   id="style2">
	.st0{fill:#1B1814;}
	.st1{fill:none;}
</style>
<path
   id="Shape"
   class="st0"
   d="m 724.05706,46.400231 c -8,20.4 -15.8,40.9 -23.9,61.299999 -0.1,0.3 -0.2,0.6 -0.3,0.9 -0.3,0.7 -0.6,1.4 -1,2.1 -0.4,0.9 -1.4,1.5 -2.4,1.3 -0.7,0 -1.2,-1.1 -1.2,-1.1 l -1.8,-3.6 c -8.5,-19.099999 -16.8,-38.399999 -25.3,-57.499999 -4.2,-9.5 -1.9,-8.4 -13,-8.4 -2.4,0 -4.9,-0.2 -7.3,0 -2.7,0.2 -3.5,1.6 -2.5,4.2 0.6,1.7 1.4,3.4 2.2,5.1 12.4,27 24.7,54.099999 37.5,80.999999 2.4,5 1.6,8.6 -1,12.9 -4,6.5 -9.7,9.1 -17.1,8 -2.4,-0.4 -4.7,-1.1 -7,-2 -5,-1.8 -5.3,-1.8 -7.5,3.2 -0.8,1.9 -1.5,3.8 -2.4,5.6 -2.3,4.5 -0.6,5.5 3.2,7 5.9,2.3 12.2,3.5 18.6,3.5 11.3,0.1 19.8,-4.7 26,-13.7 3,-4.5 5.5,-9.3 7.5,-14.3 8.9,-21.7 17.8,-43.299999 26.7,-64.999999 4,-9.6 7.9,-19.3 11.8,-28.9 2.4,-5.9 1.8,-6.6 -4.7,-6.7 -2.4,0 -4.9,0 -7.3,0 -5.7,0 -5.8,0 -7.8,5.1 z m -138.6,28.3 c -6.1,-4.4 -6,-11.5 0.5,-15.5 3.7,-2.2 8.1,-3.2 12.4,-2.8 7.3,0.6 14.4,2.7 20.8,6.3 1.1,0.6 2.3,1.3 3.5,1.8 2.2,1 4,0.7 5.3,-1.5 1.3,-2.2 2.8,-4.4 4.1,-6.7 2.4,-4.1 2.1,-5.3 -2,-7.6 -9.9,-5.5 -20.4,-9.1 -32,-8.7 -1.9,0 -3.8,-0.1 -5.6,0 -8.7,0.4 -16.9,4.1 -22.8,10.5 -10,10.7 -10.9,30.9 5.8,40.1 3.9,2.2 8,4 12.2,5.3 4.1,1.3 8.3,2.3 12.4,3.6 4.4,1.399999 9,2.599999 12.9,5.399999 5.5,4 6.2,10.5 1.5,15.4 -2.8,3 -6.5,4.2 -10.5,4.5 -10.7,0.9 -21.4,-2 -30.2,-8.1 -8,-5.4 -7.5,-3 -11.3,2.1 -5.7,7.7 -5.5,8.2 2.9,13.3 11.7,7.2 25.4,10.6 39.1,9.7 8.5,-0.4 16.6,-3.7 22.8,-9.4 10.3,-9.5 12.1,-27.9 2.4,-37.799999 -4,-4.1 -8.9,-6.8 -14.1,-8.9 -6.6,-2.7 -13.5,-4.3 -20.2,-6.6 -3.7,-1 -6.9,-2.5 -9.9,-4.4 z m -66.1,-5.9 c 7.2,-7.3 14.4,-14.6 21.6,-21.9 1,-1 2.6,-1.9 1.8,-3.7 -0.8,-1.8 -2.5,-2 -4.3,-2 -4.1,0 -8.2,0.2 -12.4,-0.1 -2.8,-0.2 -5.5,1 -7.3,3.1 -12.8,13.5 -25.8,27 -38.8,40.3 -1.2,1.3 -2.5,3.8 -4.2,3.2 -0.5,-0.1 -0.9,-0.4 -1.1,-0.9 v -4.6 c -0.1,-24 -0.1,-48 -0.1,-71.9 0,-1.3000003 0.1,-2.6000003 0,-3.9000003 -0.2,-2.9 -1.3,-4.2 -4.1,-4.3 -3.9,-0.2 -7.9,-0.1 -11.8,0 -1.7,-0.1 -3.3,1.2 -3.4,2.9 0,0.2 0,0.4 0,0.7 0,1.5 0,3 0,4.5000003 0,20.3 0,40.5 0,60.8 0,12.1 0,24.2 0,36.199999 0,9.5 0,19 0,28.4 0,4 0.7,4.7 4.4,4.8 3.4,0.1 6.8,0.1 10.1,0 3.5,-0.1 4.6,-1.2 4.7,-4.8 l 0.1,-1.9 c 0.1,-2 0.1,-4 0,-6 v -4.7 c -0.2,-2.4 0,-4.8 0.6,-7.2 0.4,-1.3 1,-2.5 1.6,-3.7 1.6,-2.3 5.9,-6.7 9.3,-10 5.1,-4.699999 4.2,-5.199999 10.7,3.2 8.1,10.5 16.3,20.9 24.3,31.4 2,2.7 4.3,3.9 7.6,3.6 3,-0.2 6,0 9,0 2.2,0 4.9,0.6 6,-1.9 1.1,-2.5 -1.2,-4 -2.5,-5.7 -11.5,-15.1 -23.1,-30.2 -34.6,-45.299999 -2.4,-3.1 -2.4,-3.4 0.2,-6.1 4.3,-3.9 8.4,-8.2 12.6,-12.5 z m -134.8,73.799999 c 34.3,-0.1 52.7,-27.2 52,-51.599999 1.2,-25.3 -18.8,-51.8 -51.6,-51.8 -31.5,0 -52,24 -52.1,51.6 -0.1,28.099999 20.3,51.899999 51.7,51.799999 z m 15.4,-21.3 c -18,9.7 -41,0.4 -46.6,-21.499999 -2.5,-9.3 -1.2,-19.2 3.8,-27.4 5.5,-9.4 13.9,-14.5 25.1,-15.4 22.1,-1.7 35.8,18.1 35,34.5 -0.5,12.799999 -5.4,23.399999 -17.3,29.799999 z m -136.4,21.3 c 32.5,0.2 52.7,-24.5 52.5,-51.599999 0.4,-26.4 -19.6,-51.7 -51.8,-51.7 -32.4,0 -52,25.9 -52,51.7 0,26.099999 19.1,51.399999 51.3,51.599999 z m -23.4,-28.7 c -12.3,-14.199999 -10.9,-36.999999 2.6,-48.999999 6.2,-5.5 13.2,-8.3 19.8,-7.9 13.6,-0.1 22.5,5.2 28.8,15 8.4,13.3 7.1,30.599999 -3.2,42.599999 -11.7,13.1 -31.8,14.2 -44.9,2.5 -1.1,-1.1 -2.2,-2.1 -3.1,-3.2 z m -123,-73.999999 v -6.7 c 0,-8.5 0,-17.1 0,-25.6000003 0,-6.6 -1,-7.49999998 -7.4,-7.59999997947 -1.9,0 -3.8,0 -5.6,0 C 98.057056,0.10023072 97.657056,0.40023072 97.657056,6.2002307 c 0,12.8000003 0,25.7000003 0,38.5000003 0,12.8 0,25.7 0,38.5 0,2.2 -0.4,4.6 1.7,6.2 4.100004,3.2 8.500004,6.1 13.100004,8.6 2.5,1.3 4.3,0.2 4.6,-2.9 0.2,-2.6 0.3,-5.2 0.1,-7.8 -0.3,-6.2 1.7,-11.7 5,-16.8 11.5,-17.9 36.2,-18.7 48.8,-1.8 6.7,9 7.8,19.1 6.2,29.7 -1.2,7.899999 -5.5,14.099999 -12,18.699999 -11.1,8 -23.4,8.4 -35.9,4.9 -11.9,-3.3 -22.1,-10 -32.000004,-17 -7.3,-5.199999 -14.3,-10.699999 -21.6,-15.999999 -12.3,-9 -26.1,-12 -40.9,-8.6 -16,3.7 -27.3999999,13.2 -33.89999993,28.199999 -1.89999997,4.5 -0.7,6.2 4.20000003,6.3 4.1,0.1 8.1999999,-0.1 12.3999999,0 2.8,0.1 4.7,-0.9 5.8,-3.5 0.4,-0.8 0.8,-1.7 1.3,-2.4 5.2,-8.8 15.7,-12.999999 25.6,-10.199999 4.5,1.199999 8.8,3.099999 12.8,5.599999 9,5.7 17.6,12 26.2,18.3 17.300004,12.9 35.800004,22.1 58.400004,20.2 15.4,-1.3 28.2,-6.9 38.1,-18.6 7.9,-9.3 11.4,-20.2 11.5,-32.399999 0.1,-10.9 -1.8,-21 -7.4,-30.4 -9.5,-15.7 -23.9,-24 -42,-24.7 -8.7,-0.2 -17.2,2 -24.6,6.5 -6,3.7 -6.1,3.6 -6,-3.4 z" />
<rect
   x="84"
   y="180"
   class="st1"
   width="800"
   height="227"
   id="rect5" />
</svg>
