<svg id="Layer_1" data-name="Layer 1" xmlns="http://www.w3.org/2000/svg"
    viewBox="0 0 1105.84 810.39">
    <defs>
        <style>.cls-1{fill:#000000;}</style>
    </defs>
    <path class="cls-1"
        d="M828.21,209.36c-48-2-95.43,11.47-138.15,36.8-32.3,19.16-32.61,18.65-32.69-20.52,0-12.6,0-25.21,0-37.81,0-48.32.12-96.64,0-145-.12-37-5.41-42.4-41.21-42.78q-15.75-.18-31.51,0C550.39.46,548.33,2.2,548.25,35.4c-.2,72.47-.06,145-.06,217.43h-.09q0,108.72,0,217.43c0,12.53-2.08,26,9.46,35C580.78,523.34,605,540.19,631,553.8c14.19,7.42,24,.93,25.73-16.18,1.44-14.57,1.23-29.42.45-44.08-1.87-35.11,9.65-66.29,28-95.06,64.54-101,202.81-105.65,273.67-10.15C996.47,439,1002.76,496.13,993.52,556c-6.9,44.74-31,79.56-67.56,105.94-62.19,44.88-131.2,47.36-201.35,27.87-66.53-18.47-123.79-56.75-179.51-96.33-41.07-29.17-80.44-60.7-121-90.55-69-50.76-146.08-67.66-229.37-48.45C104.9,475.19,41,528.92,4.81,614.11c-10.69,25.15-3.89,35,23.61,35.75,23.09.64,46.23-.41,69.32.33,15.58.49,26.2-5.2,32.41-19.57,2.06-4.79,5-9.23,7.74-13.7,31-50.59,86.23-72.62,143.63-57.36a253.37,253.37,0,0,1,71.56,31.83c50.5,32.22,98.8,67.53,146.72,103.42C596.9,767.54,700.26,819.74,827.54,809c86.3-7.3,158.06-39.21,213.6-105.31,44.18-52.58,63.76-114,64.66-182.95.81-61.41-10.2-119-41.81-171.72C1010.7,260.09,930.23,213.59,828.21,209.36Z"
        transform="translate(0)" />
</svg>